{"title":"Star Wars IV-A New Hope(1977)MPEG-4[DaScubaDude]","uid":14002237,"size":1247925970,"categoryP":"video","categoryS":"movies","magnet":"?xt=urn:btih:60db6492a8f3b2be4f296a88ca1b28b876d151b3&amp;dn=Star+Wars+IV-A+New+Hope%281977%29MPEG-4%5BDaScubaDude%5D&amp;tr=udp%3A%2F%2Ftracker.leechers-paradise.org%3A6969&amp;tr=udp%3A%2F%2Fzer0day.ch%3A1337&amp;tr=udp%3A%2F%2Fopen.demonii.com%3A1337&amp;tr=udp%3A%2F%2Ftracker.coppersurfer.tk%3A6969&amp;tr=udp%3A%2F%2Fexodus.desync.com%3A6969","seeders":1,"leechers":0,"uploader":"dascuba","files":1,"time":1458777903,"description":"Star Wars: Episode IV - A New Hope (1977)\r\nStar Wars (original title)\r\nPG | 2h 1min | Action, Adventure, Fantasy | 25 May 1977 (USA)\r\nLuke Skywalker joins forces with a Jedi Knight, a cocky pilot, a wookiee and two droids to save the galaxy from the Empire's world-destroying battle-station, while also attempting to rescue Princess Leia from the evil Darth Vader.\r\nDirector: George Lucas\r\nWriter: George Lucas\r\nStars: Mark Hamill, Harrison Ford, Carrie Fisher\r\n\r\nGeneral\r\nComplete name                            : Star Wars IVA_NEW_HOPE_Title1.mp4\r\nFormat                                   : MPEG-4\r\nFormat profile                           : Base Media\r\nCodec ID                                 : isom\r\nFile size                                : 1.16 GiB\r\nDuration                                 : 2h 4mn\r\nOverall bit rate                         : 1 335 Kbps\r\nMovie name                               : A_NEW_HOPE\r\nGenre                                    : Science_Fiction\r\nWriting application                      : Lavf54.6.100\r\n\r\nVideo\r\nID                                       : 1\r\nFormat                                   : AVC\r\nFormat/Info                              : Advanced Video Codec\r\nFormat profile                           :   \r\nFormat settings, CABAC                   : No\r\nFormat settings, ReFrames                : 6 frames\r\nCodec ID                                 : avc1\r\nCodec ID/Info                            : Advanced Video Coding\r\nDuration                                 : 2h 4mn\r\nBit rate                                 : 1 200 Kbps\r\nWidth                                    : 720 pixels\r\nHeight                                   : 404 pixels\r\nDisplay aspect ratio                     : 16:9\r\nFrame rate mode                          : Constant\r\nFrame rate                               : 29.970 fps\r\nColor space                              : YUV\r\nChroma subsampling                       : 4:2:0\r\nBit depth                                : 8 bits\r\nScan type                                : Progressive\r\nBits/(Pixel*Frame)                       : 0.138\r\nStream size                              : 1.04 GiB (90%)\r\n\r\nAudio\r\nID                                       : 2\r\nFormat                                   : AAC\r\nFormat/Info                              : Advanced Audio Codec\r\nFormat profile                           : LC\r\nCodec ID                                 : 40\r\nDuration                                 : 2h 4mn\r\nBit rate mode                            : Constant\r\nBit rate                                 : 128 Kbps\r\nChannel(s)                               : 2 channels\r\nChannel positions                        : Front: L R\r\nSampling rate                            : 44.1 KHz\r\nCompression mode                         : Lossy\r\nStream size                              : 114 MiB (10%)","torrent":{"xt":"urn:btih:60db6492a8f3b2be4f296a88ca1b28b876d151b3","amp;dn":"Star+Wars+IV-A+New+Hope%281977%29MPEG-4%5BDaScubaDude%5D","amp;tr":["udp%3A%2F%2Ftracker.leechers-paradise.org%3A6969","udp%3A%2F%2Fzer0day.ch%3A1337","udp%3A%2F%2Fopen.demonii.com%3A1337","udp%3A%2F%2Ftracker.coppersurfer.tk%3A6969","udp%3A%2F%2Fexodus.desync.com%3A6969"],"infoHash":"60db6492a8f3b2be4f296a88ca1b28b876d151b3","infoHashBuffer":{"type":"Buffer","data":[96,219,100,146,168,243,178,190,79,41,106,136,202,27,40,184,118,209,81,179]},"announce":[],"urlList":[]}}